PathFileType	4	(X/Y/Z)	D:\Research_projects\MuscleProsody\BulkSports2Dtrack\RetrackedSports2D\p1_sample60_cam3\p1_sample60_cam3_Sports2D\p1_sample60_cam3_Sports2D_px_person00.trc
DataRate	CameraRate	NumFrames	NumMarkers	Units	OrigDataRate	OrigDataStartFrame	OrigNumFrames
60	60	10	22	m	60	0	780
Frame#	Time	Hip			RHip			RKnee			RAnkle			RBigToe			RSmallToe			RHeel			LHip			LKnee			LAnkle			LBigToe			LSmallToe			LHeel			Neck			Head			Nose			RShoulder			RElbow			RWrist			LShoulder			LElbow			LWrist		
		X1	Y1	Z1	X2	Y2	Z2	X3	Y3	Z3	X4	Y4	Z4	X5	Y5	Z5	X6	Y6	Z6	X7	Y7	Z7	X8	Y8	Z8	X9	Y9	Z9	X10	Y10	Z10	X11	Y11	Z11	X12	Y12	Z12	X13	Y13	Z13	X14	Y14	Z14	X15	Y15	Z15	X16	Y16	Z16	X17	Y17	Z17	X18	Y18	Z18	X19	Y19	Z19	X20	Y20	Z20	X21	Y21	Z21	X22	Y22	Z22
0	0.0	217.7410402877223	552.0389267961234	0.0	194.218937983142	550.1797897377947	0.0	200.81296906194956	666.811101464759	0.0	217.7671095376735	773.1191604490568	0.0	187.67594665134115	812.6563661329282	0.0	182.99175192066457	801.4250865541532	0.0	234.7474937146627	787.2661464596921	0.0	240.32562902273173	552.9948971006448	0.0	244.0914498326022	673.3935531570727	0.0	260.09582917735673	790.0699970726126	0.0	220.55293097592187	822.976045551996	0.0	236.56556977560794	827.7221632547145	0.0	277.0835220705127	801.3527872225176	0.0	224.35895807474478	358.2823834670614	0.0	200.8636203065845	266.98645712968124	0.0	180.16479959718953	321.53957410925904	0.0	191.44617804030153	391.18098789791725	0.0	182.97218248860543	476.80958752565294	0.0	159.45304944487484	550.1737684030677	0.0	277.04088747926164	385.53641484679866	0.0	288.34152896793216	483.4170263438464	0.0	275.1312359016581	578.4124807124936	0.0
1	0.016666666666666666	217.74079700948937	551.6402003965902	0.0	194.40678277610175	550.1387133189698	0.0	200.73739951721467	666.8022642443467	0.0	217.6566288668173	772.9550291796438	0.0	187.7686075089388	812.8089715847458	0.0	183.30623668563717	802.3123457678358	0.0	234.59203605913507	787.2204072692911	0.0	240.23856522216303	552.933071196316	0.0	244.05097764940984	673.2914667246695	0.0	259.7573635136181	790.0428876627955	0.0	220.34737489038	822.9301045276248	0.0	236.56641975648233	827.7670285218243	0.0	277.1645080425548	801.1747698136	0.0	224.1499297742383	358.19502970036314	0.0	200.95853449496929	266.7989788509348	0.0	180.30963141268836	321.1578873545659	0.0	191.4257133194579	391.21683583337733	0.0	182.84127096230114	476.7963702679201	0.0	159.08292958110258	550.3863786777855	0.0	276.7704201575069	385.52527909261744	0.0	288.5045859970933	483.34569732532225	0.0	275.16346651977284	578.2785072636676	0.0
2	0.03333333333333333	217.75582837849782	551.2773060575838	0.0	194.60085499568908	550.1131214432004	0.0	200.68758879555764	666.8079652889808	0.0	217.56284588498892	772.8039939897294	0.0	187.84964616599254	812.949278005874	0.0	183.58985337558744	803.1264199457801	0.0	234.4314338431317	787.1701916007357	0.0	240.1741551132473	552.8820330301149	0.0	244.02066911240226	673.2095340214048	0.0	259.4485436352566	790.0084264545013	0.0	220.1614216443507	822.8918385499258	0.0	236.57005341823898	827.7986745858544	0.0	277.2286597601876	800.9980594052099	0.0	223.96250834579828	358.10930977759483	0.0	201.05033868911616	266.62723231919455	0.0	180.44365745651226	320.81697090142137	0.0	191.40907870318898	391.25495965800155	0.0	182.7143775613851	476.78819488302224	0.0	158.7254115208155	550.5877225710137	0.0	276.52086995406796	385.51397555714203	0.0	288.6609537347067	483.2855232534474	0.0	275.1957190628278	578.1556695354752	0.0
3	0.05	217.7923926017138	550.974420746399	0.0	194.80391446746424	550.1153555299175	0.0	200.67920286472724	666.8365991543079	0.0	217.49526513084874	772.67351105367	0.0	187.91325927258418	813.0682591996397	0.0	183.82386178229584	803.8224773491028	0.0	234.26674511618927	787.1145532415801	0.0	240.1457634315653	552.8511557831902	0.0	244.0056389771655	673.1594615467517	0.0	259.1857073153865	789.9602186761496	0.0	220.0048829028917	822.8630275560494	0.0	236.5765785925186	827.8098812302984	0.0	277.2664528843169	800.8228113313594	0.0	223.80995871682748	358.0251553098236	0.0	201.13758817001835	266.4788702939788	0.0	180.56108732937236	320.54036215335526	0.0	191.39860020406252	391.2960872572991	0.0	182.59605701824776	476.7898641034663	0.0	158.3929010202866	550.7703350907444	0.0	276.3056859884973	385.49858590690127	0.0	288.80712118521495	483.24504240380924	0.0	275.2261205135699	578.0520156355009	0.0
4	0.06666666666666667	217.85047425349552	550.7436275096912	0.0	195.01526745292276	550.1528948084513	0.0	200.7181773380135	666.8934556011469	0.0	217.45616624338544	772.5665566663939	0.0	187.95847797982842	813.1611962252804	0.0	184.00186990774816	804.384747593127	0.0	234.09959898635552	787.0550678363986	0.0	240.15500157690943	552.850272321745	0.0	244.00935608056682	673.146855422754	0.0	258.9741679965391	789.89674107622	0.0	219.88072558647008	822.8430729390875	0.0	236.58533270727077	827.7980536691	0.0	277.2746123452673	800.6510241777492	0.0	223.69534581159124	357.9407905138536	0.0	201.2186209482713	266.3576207987675	0.0	180.66048930508225	320.33655781245665	0.0	191.39527029292677	391.3395220682964	0.0	182.49101274753465	476.80149881600477	0.0	158.09489792450432	550.9308712111095	0.0	276.13067261448765	385.4764431829231	0.0	288.9426623821314	483.2261868434583	0.0	275.2540192100651	577.9713340512973	0.0
5	0.08333333333333333	217.92555232313788	550.5880602869167	0.0	195.23175797314596	550.2300146609407	0.0	200.8045691451062	666.9839061016733	0.0	217.4448420037827	772.4845208947461	0.0	187.98618791331418	813.227908186494	0.0	184.1253305130694	804.8154125954035	0.0	233.93110704064298	786.9949209822233	0.0	240.19704759742297	552.8884058227186	0.0	244.03387951456375	673.1748720750936	0.0	258.8120586823817	789.821767549888	0.0	219.78872898095082	822.832229923743	0.0	236.59550641141124	827.7668031186842	0.0	277.2534992307397	800.4873571441298	0.0	223.61557881337563	357.8535826675477	0.0	201.29089800621136	266.26622045744284	0.0	180.74218647311153	320.20439513517596	0.0	191.3987022506495	391.384298931102	0.0	182.40345951676645	476.81979603313516	0.0	157.83683278553622	551.0689098564799	0.0	275.99856129981436	385.44760481942063	0.0	289.06851889114523	483.22739862414335	0.0	275.2800887984235	577.9133659123191	0.0
6	0.1	218.01255864486768	550.504053348509	0.0	195.4505494145468	550.346045081113	0.0	200.93552499112656	667.1107386175629	0.0	217.46035769472448	772.4282956682168	0.0	187.99723019771486	813.2709300525845	0.0	184.19988565407533	805.1224818459947	0.0	233.76300467460837	786.9378402617385	0.0	240.26734715866087	552.9682860241599	0.0	244.08006161893326	673.2447917494068	0.0	258.69439135663714	789.7425706557924	0.0	219.72905286979005	822.8324268242973	0.0	236.60691475792567	827.7246717160488	0.0	277.20625785360403	800.3389519534198	0.0	223.56603448107643	357.76200717345387	0.0	201.3514056472607	266.2075911931823	0.0	180.80616291409916	320.13897427566206	0.0	191.4073260430713	391.4307349099059	0.0	182.3358402426217	476.84067400765355	0.0	157.62088173257035	551.1859008275187	0.0	275.9109625389614	385.41453035931323	0.0	289.18539345860955	483.24668772529077	0.0	275.3065030573906	577.8756893505923	0.0
7	0.11666666666666667	218.10858688651808	550.4808676519148	0.0	195.67007284151856	550.4924830322074	0.0	201.10546616194932	667.2708919259984	0.0	217.50079644790574	772.3966169012676	0.0	187.99438681968104	813.2931741605246	0.0	184.23607166869166	805.3186289095514	0.0	233.59917556055052	786.8864079675097	0.0	240.36235927876626	553.0836246996099	0.0	244.1477641793182	673.3537242130242	0.0	258.6134810633176	789.6669667072097	0.0	219.70161180172772	822.8441839816012	0.0	236.61977331464843	827.6806134179336	0.0	277.1389972271924	800.2120980467117	0.0	223.54156602391515	357.6666758625672	0.0	201.39841940780337	266.1836112561271	0.0	180.8531776278765	320.1311880081856	0.0	191.41902458023523	391.47989085432687	0.0	182.28854387707295	476.8609663760255	0.0	157.44728661487522	551.2847845682536	0.0	275.86654336135433	385.380501133315	0.0	289.29334526618135	483.28048307791767	0.0	275.3368586118467	577.8540499138663	0.0
8	0.13333333333333333	218.2129712334324	550.5026934254657	0.0	195.88908755392035	550.6548669362285	0.0	201.30540826998026	667.4568412307435	0.0	217.5618996399089	772.3860429654173	0.0	187.98424629106182	813.2976241559431	0.0	184.24819569321883	805.4222166524189	0.0	233.44475866882547	786.8407675753247	0.0	240.4774660212128	553.2225636125014	0.0	244.2354650469683	673.4940148386555	0.0	258.55909881380796	789.6009397892732	0.0	219.7047805568769	822.865204736675	0.0	236.63466946893436	827.6400395673203	0.0	277.0587235647198	800.1092652733449	0.0	223.53613890764532	357.56928419075393	0.0	201.4323555627428	266.1930861413415	0.0	180.8857927500467	320.16659669591667	0.0	191.43143797318217	391.5322604126917	0.0	182.26060800257972	476.8790196631651	0.0	157.31433571776734	551.369308485477	0.0	275.8597430251669	385.3479337914768	0.0	289.39157438150977	483.32135904143104	0.0	275.3756207464099	577.8419311675048	0.0
9	0.15	218.32567572906413	550.5544719604792	0.0	196.1067642417936	550.8192931134244	0.0	201.52419386755358	667.6593758934056	0.0	217.63819394899443	772.3938186002696	0.0	187.97499412747615	813.2885948759055	0.0	184.24807844919675	805.4515236238652	0.0	233.3038426628266	786.7992381633958	0.0	240.60829506086318	553.3725348907697	0.0	244.3396253935792	673.6554555945678	0.0	258.5220599392303	789.5476394433033	0.0	219.73713828052286	822.893247645289	0.0	236.65415136185553	827.6051504772926	0.0	276.9696903020804	800.0298565554275	0.0	223.54425437560627	357.470888580642	0.0	201.4542583378504	266.2306221541452	0.0	180.90677296195346	320.2297114373009	0.0	191.44196467616965	391.58753359732543	0.0	182.25000943342286	476.8948818116172	0.0	157.21873069994928	551.4431497160517	0.0	275.8825842779152	385.31752022433295	0.0	289.478530101918	483.3593170367387	0.0	275.4272301713997	577.8320918777557	0.0
